<?xml version="1.0" encoding="UTF-8" standalone="no"?>
<!DOCTYPE svg PUBLIC "-//W3C//DTD SVG 1.1//EN"
 "http://www.w3.org/Graphics/SVG/1.1/DTD/svg11.dtd">
<!-- Generated by graphviz version 2.38.0 (20140413.2041)
 -->
<!-- Title: chord_all Pages: 1 -->
<svg width="6022pt" height="3015pt"
 viewBox="0.00 0.00 6021.54 3014.50" xmlns="http://www.w3.org/2000/svg" xmlns:xlink="http://www.w3.org/1999/xlink">
<g id="graph0" class="graph" transform="scale(1 1) rotate(0) translate(4 3010.5)">
<title>chord_all</title>
<polygon fill="white" stroke="none" points="-4,4 -4,-3010.5 6017.54,-3010.5 6017.54,4 -4,4"/>
<g id="clust1" class="cluster"><title>cluster_ChordSemantics</title>
<polygon fill="#ffffc3" stroke="black" points="5773.54,-66.9972 5773.54,-695.096 6005.54,-695.096 6005.54,-66.9972 5773.54,-66.9972"/>
<text text-anchor="middle" x="5827.04" y="-679.896" font-family="Times,serif" font-size="14.00">ChordSemantics</text>
</g>
<!-- _chord_stabilization -->
<g id="node1" class="node"><title>_chord_stabilization</title>
<g id="a_node1"><a xlink:href=".html#chord_stabilization" xlink:title="chord_stabilization: 41">
<ellipse fill="#7fffd4" stroke="black" cx="4388.54" cy="-2789" rx="91.7725" ry="18"/>
<ellipse fill="none" stroke="black" cx="4388.54" cy="-2789" rx="95.7782" ry="22"/>
<ellipse fill="none" stroke="black" cx="4388.54" cy="-2789" rx="99.7839" ry="26"/>
<text text-anchor="middle" x="4388.54" y="-2785.3" font-family="Times,serif" font-size="14.00">chord_stabilization: 41</text>
</a>
</g>
</g>
<!-- _phase_three -->
<g id="node2" class="node"><title>_phase_three</title>
<g id="a_node2"><a xlink:href=".html#phase_three" xlink:title="phase_three: 41">
<ellipse fill="#7fffd4" stroke="black" cx="3472.54" cy="-2119" rx="66.0889" ry="18"/>
<text text-anchor="middle" x="3472.54" y="-2115.3" font-family="Times,serif" font-size="14.00">phase_three: 41</text>
</a>
</g>
</g>
<!-- _chord_stabilization&#45;&gt;_phase_three -->
<g id="edge38" class="edge"><title>_chord_stabilization&#45;&gt;_phase_three</title>
<path fill="none" stroke="black" d="M4355.94,-2764.22C4212.81,-2659.85 3641.1,-2242.92 3502.79,-2142.05"/>
<polygon fill="black" stroke="black" points="3504.82,-2139.2 3494.68,-2136.14 3500.7,-2144.86 3504.82,-2139.2"/>
</g>
<!-- _phases_sufficient -->
<g id="node23" class="node"><title>_phases_sufficient</title>
<g id="a_node23"><a xlink:href=".html#phases_sufficient" xlink:title="phases_sufficient: 0">
<ellipse fill="#7fffd4" stroke="black" cx="5305.54" cy="-2119" rx="81.4863" ry="18"/>
<text text-anchor="middle" x="5305.54" y="-2115.3" font-family="Times,serif" font-size="14.00">phases_sufficient: 0</text>
</a>
</g>
</g>
<!-- _chord_stabilization&#45;&gt;_phases_sufficient -->
<g id="edge39" class="edge"><title>_chord_stabilization&#45;&gt;_phases_sufficient</title>
<path fill="none" stroke="black" d="M4421.18,-2764.22C4564.31,-2659.96 5135.55,-2243.83 5274.81,-2142.38"/>
<polygon fill="black" stroke="black" points="5276.96,-2145.15 5282.98,-2136.43 5272.84,-2139.49 5276.96,-2145.15"/>
</g>
<!-- _phase_three_with_extra_hyps -->
<g id="node3" class="node"><title>_phase_three_with_extra_hyps</title>
<g id="a_node3"><a xlink:href=".html#phase_three_with_extra_hyps" xlink:title="phase_three_with_extra_hyps: 14">
<ellipse fill="#7fffd4" stroke="black" cx="1505.54" cy="-1516" rx="129.177" ry="18"/>
<text text-anchor="middle" x="1505.54" y="-1512.3" font-family="Times,serif" font-size="14.00">phase_three_with_extra_hyps: 14</text>
</a>
</g>
</g>
<!-- _phase_three&#45;&gt;_phase_three_with_extra_hyps -->
<g id="edge20" class="edge"><title>_phase_three&#45;&gt;_phase_three_with_extra_hyps</title>
<path fill="none" stroke="black" d="M3430.09,-2105.03C3176.81,-2027.64 1865.97,-1627.12 1566.51,-1535.63"/>
<polygon fill="black" stroke="black" points="1567.29,-1532.2 1556.7,-1532.63 1565.24,-1538.9 1567.29,-1532.2"/>
</g>
<!-- _phase_two_without_phase_one -->
<g id="node13" class="node"><title>_phase_two_without_phase_one</title>
<g id="a_node13"><a xlink:href=".html#phase_two_without_phase_one" xlink:title="phase_two_without_phase_one: 36">
<ellipse fill="#7fffd4" stroke="black" cx="3472.54" cy="-1516" rx="134.576" ry="18"/>
<text text-anchor="middle" x="3472.54" y="-1512.3" font-family="Times,serif" font-size="14.00">phase_two_without_phase_one: 36</text>
</a>
</g>
</g>
<!-- _phase_three&#45;&gt;_phase_two_without_phase_one -->
<g id="edge21" class="edge"><title>_phase_three&#45;&gt;_phase_two_without_phase_one</title>
<path fill="none" stroke="black" d="M3472.54,-2100.98C3472.54,-2017.21 3472.54,-1648.54 3472.54,-1544.45"/>
<polygon fill="black" stroke="black" points="3476.04,-1544.15 3472.54,-1534.15 3469.04,-1544.15 3476.04,-1544.15"/>
</g>
<!-- _phase_three_error_continuously_zero_sound -->
<g id="node4" class="node"><title>_phase_three_error_continuously_zero_sound</title>
<g id="a_node4"><a xlink:href=".html#phase_three_error_continuously_zero_sound" xlink:title="phase_three_error_continuously_zero_sound: 2">
<ellipse fill="#7fffd4" stroke="black" cx="610.544" cy="-912.997" rx="178.168" ry="18"/>
<text text-anchor="middle" x="610.544" y="-909.297" font-family="Times,serif" font-size="14.00">phase_three_error_continuously_zero_sound: 2</text>
</a>
</g>
</g>
<!-- _phase_three_with_extra_hyps&#45;&gt;_phase_three_error_continuously_zero_sound -->
<g id="edge8" class="edge"><title>_phase_three_with_extra_hyps&#45;&gt;_phase_three_error_continuously_zero_sound</title>
<path fill="none" stroke="black" d="M1480.67,-1498.3C1354.85,-1413.81 788.794,-1033.69 644.237,-936.622"/>
<polygon fill="black" stroke="black" points="645.972,-933.572 635.719,-930.903 642.07,-939.383 645.972,-933.572"/>
</g>
<!-- _phase_three_error_to_zero -->
<g id="node10" class="node"><title>_phase_three_error_to_zero</title>
<g id="a_node10"><a xlink:href=".html#phase_three_error_to_zero" xlink:title="phase_three_error_to_zero: 14">
<ellipse fill="#7fffd4" stroke="black" cx="1505.54" cy="-912.997" rx="118.079" ry="18"/>
<text text-anchor="middle" x="1505.54" y="-909.297" font-family="Times,serif" font-size="14.00">phase_three_error_to_zero: 14</text>
</a>
</g>
</g>
<!-- _phase_three_with_extra_hyps&#45;&gt;_phase_three_error_to_zero -->
<g id="edge9" class="edge"><title>_phase_three_with_extra_hyps&#45;&gt;_phase_three_error_to_zero</title>
<path fill="none" stroke="black" d="M1505.54,-1497.98C1505.54,-1414.21 1505.54,-1045.54 1505.54,-941.452"/>
<polygon fill="black" stroke="black" points="1509.04,-941.154 1505.54,-931.154 1502.04,-941.154 1509.04,-941.154"/>
</g>
<!-- _phase_three_error_sound -->
<g id="node5" class="node"><title>_phase_three_error_sound</title>
<g id="a_node5"><a xlink:href=".html#phase_three_error_sound" xlink:title="phase_three_error_sound: 2">
<ellipse fill="#7fffd4" stroke="black" cx="739.544" cy="-284.997" rx="108.581" ry="18"/>
<text text-anchor="middle" x="739.544" y="-281.297" font-family="Times,serif" font-size="14.00">phase_three_error_sound: 2</text>
</a>
</g>
</g>
<!-- _phase_three_error_continuously_zero_sound&#45;&gt;_phase_three_error_sound -->
<g id="edge1" class="edge"><title>_phase_three_error_continuously_zero_sound&#45;&gt;_phase_three_error_sound</title>
<path fill="none" stroke="black" d="M614.061,-894.929C631.863,-808.539 712.043,-419.452 733.98,-312.995"/>
<polygon fill="black" stroke="black" points="737.439,-313.551 736.03,-303.051 730.583,-312.138 737.439,-313.551"/>
</g>
<!-- _lb_execution_step_one_cons -->
<g id="node6" class="node"><title>_lb_execution_step_one_cons</title>
<g id="a_node6"><a xlink:href=".html#lb_execution_step_one_cons" xlink:title="lb_execution_step_one_cons: 0">
<ellipse fill="#7fffd4" stroke="black" cx="987.544" cy="-284.997" rx="121.578" ry="18"/>
<text text-anchor="middle" x="987.544" y="-281.297" font-family="Times,serif" font-size="14.00">lb_execution_step_one_cons: 0</text>
</a>
</g>
</g>
<!-- _phase_three_error_continuously_zero_sound&#45;&gt;_lb_execution_step_one_cons -->
<g id="edge2" class="edge"><title>_phase_three_error_continuously_zero_sound&#45;&gt;_lb_execution_step_one_cons</title>
<path fill="none" stroke="black" d="M620.823,-894.929C673.06,-808.19 909.069,-416.303 972.053,-311.719"/>
<polygon fill="black" stroke="black" points="975.113,-313.423 977.274,-303.051 969.116,-309.811 975.113,-313.423"/>
</g>
<!-- _reachableStep -->
<g id="node7" class="node"><title>_reachableStep</title>
<g id="a_node7"><a xlink:href=".html#reachableStep" xlink:title="reachableStep: 0">
<ellipse fill="#7faaff" stroke="black" cx="69.5438" cy="-284.997" rx="69.5877" ry="18"/>
<text text-anchor="middle" x="69.5438" y="-281.297" font-family="Times,serif" font-size="14.00">reachableStep: 0</text>
</a>
</g>
</g>
<!-- _phase_three_error_continuously_zero_sound&#45;&gt;_reachableStep -->
<g id="edge3" class="edge"><title>_phase_three_error_continuously_zero_sound&#45;&gt;_reachableStep</title>
<path fill="none" stroke="black" d="M595.793,-894.929C520.523,-807.833 179.362,-413.07 90.6688,-310.441"/>
<polygon fill="black" stroke="black" points="93.2156,-308.035 84.0287,-302.758 87.9194,-312.613 93.2156,-308.035"/>
</g>
<!-- _lb_execution_invar -->
<g id="node8" class="node"><title>_lb_execution_invar</title>
<g id="a_node8"><a xlink:href=".html#lb_execution_invar" xlink:title="lb_execution_invar: 0">
<ellipse fill="#7fffd4" stroke="black" cx="244.544" cy="-284.997" rx="87.9851" ry="18"/>
<text text-anchor="middle" x="244.544" y="-281.297" font-family="Times,serif" font-size="14.00">lb_execution_invar: 0</text>
</a>
</g>
</g>
<!-- _phase_three_error_continuously_zero_sound&#45;&gt;_lb_execution_invar -->
<g id="edge4" class="edge"><title>_phase_three_error_continuously_zero_sound&#45;&gt;_lb_execution_invar</title>
<path fill="none" stroke="black" d="M600.564,-894.929C549.852,-808.19 320.729,-416.303 259.582,-311.719"/>
<polygon fill="black" stroke="black" points="262.583,-309.917 254.514,-303.051 256.54,-313.45 262.583,-309.917"/>
</g>
<!-- _labeled_step_is_unlabeled_step -->
<g id="node9" class="node"><title>_labeled_step_is_unlabeled_step</title>
<g id="a_node9"><a xlink:href=".html#labeled_step_is_unlabeled_step" xlink:title="labeled_step_is_unlabeled_step: 0">
<ellipse fill="#7fffd4" stroke="black" cx="481.544" cy="-284.997" rx="131.077" ry="18"/>
<text text-anchor="middle" x="481.544" y="-281.297" font-family="Times,serif" font-size="14.00">labeled_step_is_unlabeled_step: 0</text>
</a>
</g>
</g>
<!-- _phase_three_error_continuously_zero_sound&#45;&gt;_labeled_step_is_unlabeled_step -->
<g id="edge5" class="edge"><title>_phase_three_error_continuously_zero_sound&#45;&gt;_labeled_step_is_unlabeled_step</title>
<path fill="none" stroke="black" d="M607.026,-894.929C589.224,-808.539 509.045,-419.452 487.107,-312.995"/>
<polygon fill="black" stroke="black" points="490.504,-312.138 485.058,-303.051 483.648,-313.551 490.504,-312.138"/>
</g>
<!-- _always_all_measures_drop_when_succs_error_nonzero -->
<g id="node11" class="node"><title>_always_all_measures_drop_when_succs_error_nonzero</title>
<g id="a_node11"><a xlink:href=".html#always_all_measures_drop_when_succs_error_nonzero" xlink:title="always_all_measures_drop_when_succs_error_nonzero: 14">
<ellipse fill="#7fffd4" stroke="black" cx="1710.54" cy="-284.997" rx="220.961" ry="18"/>
<text text-anchor="middle" x="1710.54" y="-281.297" font-family="Times,serif" font-size="14.00">always_all_measures_drop_when_succs_error_nonzero: 14</text>
</a>
</g>
</g>
<!-- _phase_three_error_to_zero&#45;&gt;_always_all_measures_drop_when_succs_error_nonzero -->
<g id="edge6" class="edge"><title>_phase_three_error_to_zero&#45;&gt;_always_all_measures_drop_when_succs_error_nonzero</title>
<path fill="none" stroke="black" d="M1511.13,-894.929C1539.45,-808.452 1667.1,-418.666 1701.81,-312.673"/>
<polygon fill="black" stroke="black" points="1705.17,-313.643 1704.96,-303.051 1698.52,-311.465 1705.17,-313.643"/>
</g>
<!-- _local_measure_causes_max_measure_zero -->
<g id="node12" class="node"><title>_local_measure_causes_max_measure_zero</title>
<g id="a_node12"><a xlink:href=".html#local_measure_causes_max_measure_zero" xlink:title="local_measure_causes_max_measure_zero: 0">
<ellipse fill="#7fffd4" stroke="black" cx="1299.54" cy="-284.997" rx="172.47" ry="18"/>
<text text-anchor="middle" x="1299.54" y="-281.297" font-family="Times,serif" font-size="14.00">local_measure_causes_max_measure_zero: 0</text>
</a>
</g>
</g>
<!-- _phase_three_error_to_zero&#45;&gt;_local_measure_causes_max_measure_zero -->
<g id="edge7" class="edge"><title>_phase_three_error_to_zero&#45;&gt;_local_measure_causes_max_measure_zero</title>
<path fill="none" stroke="black" d="M1499.93,-894.929C1471.47,-808.452 1343.2,-418.666 1308.32,-312.673"/>
<polygon fill="black" stroke="black" points="1311.61,-311.455 1305.16,-303.051 1304.96,-313.644 1311.61,-311.455"/>
</g>
<!-- _phase_one_continuously -->
<g id="node14" class="node"><title>_phase_one_continuously</title>
<g id="a_node14"><a xlink:href=".html#phase_one_continuously" xlink:title="phase_one_continuously: 19">
<ellipse fill="#7fffd4" stroke="black" cx="3068.54" cy="-912.997" rx="111.28" ry="18"/>
<text text-anchor="middle" x="3068.54" y="-909.297" font-family="Times,serif" font-size="14.00">phase_one_continuously: 19</text>
</a>
</g>
</g>
<!-- _phase_two_without_phase_one&#45;&gt;_phase_one_continuously -->
<g id="edge18" class="edge"><title>_phase_two_without_phase_one&#45;&gt;_phase_one_continuously</title>
<path fill="none" stroke="black" d="M3461.1,-1497.98C3404.45,-1413.7 3153.95,-1041.06 3085.74,-939.585"/>
<polygon fill="black" stroke="black" points="3088.56,-937.501 3080.08,-931.154 3082.75,-941.406 3088.56,-937.501"/>
</g>
<!-- _phase_two_continuously -->
<g id="node19" class="node"><title>_phase_two_continuously</title>
<g id="a_node19"><a xlink:href=".html#phase_two_continuously" xlink:title="phase_two_continuously: 31">
<ellipse fill="#7fffd4" stroke="black" cx="3876.54" cy="-912.997" rx="111.581" ry="18"/>
<text text-anchor="middle" x="3876.54" y="-909.297" font-family="Times,serif" font-size="14.00">phase_two_continuously: 31</text>
</a>
</g>
</g>
<!-- _phase_two_without_phase_one&#45;&gt;_phase_two_continuously -->
<g id="edge19" class="edge"><title>_phase_two_without_phase_one&#45;&gt;_phase_two_continuously</title>
<path fill="none" stroke="black" d="M3483.98,-1497.98C3540.64,-1413.7 3791.13,-1041.06 3859.34,-939.585"/>
<polygon fill="black" stroke="black" points="3862.34,-941.406 3865.01,-931.154 3856.53,-937.501 3862.34,-941.406"/>
</g>
<!-- _continuously_zero_total_leading_failed_nodes_implies_phase_one -->
<g id="node15" class="node"><title>_continuously_zero_total_leading_failed_nodes_implies_phase_one</title>
<g id="a_node15"><a xlink:href=".html#continuously_zero_total_leading_failed_nodes_implies_phase_one" xlink:title="continuously_zero_total_leading_failed_nodes_implies_phase_one: 13">
<ellipse fill="#7fffd4" stroke="black" cx="2592.54" cy="-284.997" rx="260.754" ry="18"/>
<text text-anchor="middle" x="2592.54" y="-281.297" font-family="Times,serif" font-size="14.00">continuously_zero_total_leading_failed_nodes_implies_phase_one: 13</text>
</a>
</g>
</g>
<!-- _phase_one_continuously&#45;&gt;_continuously_zero_total_leading_failed_nodes_implies_phase_one -->
<g id="edge10" class="edge"><title>_phase_one_continuously&#45;&gt;_continuously_zero_total_leading_failed_nodes_implies_phase_one</title>
<path fill="none" stroke="black" d="M3055.57,-894.929C2989.48,-808.016 2690.43,-414.725 2611.62,-311.091"/>
<polygon fill="black" stroke="black" points="2614.35,-308.892 2605.51,-303.051 2608.78,-313.129 2614.35,-308.892"/>
</g>
<!-- _phase_one_nonzero_error_causes_measure_drop -->
<g id="node16" class="node"><title>_phase_one_nonzero_error_causes_measure_drop</title>
<g id="a_node16"><a xlink:href=".html#phase_one_nonzero_error_causes_measure_drop" xlink:title="phase_one_nonzero_error_causes_measure_drop: 17">
<ellipse fill="#7fffd4" stroke="black" cx="3068.54" cy="-284.997" rx="197.665" ry="18"/>
<text text-anchor="middle" x="3068.54" y="-281.297" font-family="Times,serif" font-size="14.00">phase_one_nonzero_error_causes_measure_drop: 17</text>
</a>
</g>
</g>
<!-- _phase_one_continuously&#45;&gt;_phase_one_nonzero_error_causes_measure_drop -->
<g id="edge11" class="edge"><title>_phase_one_continuously&#45;&gt;_phase_one_nonzero_error_causes_measure_drop</title>
<path fill="none" stroke="black" d="M3068.54,-894.929C3068.54,-808.627 3068.54,-420.238 3068.54,-313.319"/>
<polygon fill="black" stroke="black" points="3072.04,-313.051 3068.54,-303.051 3065.04,-313.051 3072.04,-313.051"/>
</g>
<!-- _phase_one_error_continuously_nonincreasing -->
<g id="node17" class="node"><title>_phase_one_error_continuously_nonincreasing</title>
<g id="a_node17"><a xlink:href=".html#phase_one_error_continuously_nonincreasing" xlink:title="phase_one_error_continuously_nonincreasing: 1">
<ellipse fill="#ffb57f" stroke="black" cx="2131.54" cy="-284.997" rx="181.968" ry="18"/>
<text text-anchor="middle" x="2131.54" y="-281.297" font-family="Times,serif" font-size="14.00">phase_one_error_continuously_nonincreasing: 1</text>
</a>
</g>
</g>
<!-- _phase_one_continuously&#45;&gt;_phase_one_error_continuously_nonincreasing -->
<g id="edge12" class="edge"><title>_phase_one_continuously&#45;&gt;_phase_one_error_continuously_nonincreasing</title>
<path fill="none" stroke="black" d="M3043.48,-895.253C2913.36,-808.322 2315.11,-408.636 2165.52,-308.697"/>
<polygon fill="black" stroke="black" points="2167.38,-305.731 2157.12,-303.086 2163.49,-311.552 2167.38,-305.731"/>
</g>
<!-- _local_measure_causes_measure_zero_continuosly -->
<g id="node18" class="node"><title>_local_measure_causes_measure_zero_continuosly</title>
<g id="a_node18"><a xlink:href=".html#local_measure_causes_measure_zero_continuosly" xlink:title="local_measure_causes_measure_zero_continuosly: 0">
<ellipse fill="#7fffd4" stroke="black" cx="3481.54" cy="-284.997" rx="197.665" ry="18"/>
<text text-anchor="middle" x="3481.54" y="-281.297" font-family="Times,serif" font-size="14.00">local_measure_causes_measure_zero_continuosly: 0</text>
</a>
</g>
</g>
<!-- _phase_one_continuously&#45;&gt;_local_measure_causes_measure_zero_continuosly -->
<g id="edge13" class="edge"><title>_phase_one_continuously&#45;&gt;_local_measure_causes_measure_zero_continuosly</title>
<path fill="none" stroke="black" d="M3079.8,-894.929C3137.09,-808.103 3396.1,-415.514 3464.78,-311.404"/>
<polygon fill="black" stroke="black" points="3467.71,-313.325 3470.29,-303.051 3461.86,-309.47 3467.71,-313.325"/>
</g>
<!-- _phase_two_continuously&#45;&gt;_local_measure_causes_measure_zero_continuosly -->
<g id="edge17" class="edge"><title>_phase_two_continuously&#45;&gt;_local_measure_causes_measure_zero_continuosly</title>
<path fill="none" stroke="black" d="M3865.77,-894.929C3811.04,-808.19 3563.77,-416.303 3497.77,-311.719"/>
<polygon fill="black" stroke="black" points="3500.6,-309.64 3492.3,-303.051 3494.68,-313.375 3500.6,-309.64"/>
</g>
<!-- _phase_two_error_continuously_nonincreasing -->
<g id="node20" class="node"><title>_phase_two_error_continuously_nonincreasing</title>
<g id="a_node20"><a xlink:href=".html#phase_two_error_continuously_nonincreasing" xlink:title="phase_two_error_continuously_nonincreasing: 3">
<ellipse fill="#7fffd4" stroke="black" cx="4256.54" cy="-284.997" rx="182.768" ry="18"/>
<text text-anchor="middle" x="4256.54" y="-281.297" font-family="Times,serif" font-size="14.00">phase_two_error_continuously_nonincreasing: 3</text>
</a>
</g>
</g>
<!-- _phase_two_continuously&#45;&gt;_phase_two_error_continuously_nonincreasing -->
<g id="edge14" class="edge"><title>_phase_two_continuously&#45;&gt;_phase_two_error_continuously_nonincreasing</title>
<path fill="none" stroke="black" d="M3886.9,-894.929C3939.56,-808.19 4177.44,-416.303 4240.93,-311.719"/>
<polygon fill="black" stroke="black" points="4243.99,-313.415 4246.19,-303.051 4238.01,-309.783 4243.99,-313.415"/>
</g>
<!-- _continuously_zero_phase_two_error_phase_two -->
<g id="node21" class="node"><title>_continuously_zero_phase_two_error_phase_two</title>
<g id="a_node21"><a xlink:href=".html#continuously_zero_phase_two_error_phase_two" xlink:title="continuously_zero_phase_two_error_phase_two: 1">
<ellipse fill="#7fffd4" stroke="black" cx="4647.54" cy="-284.997" rx="190.366" ry="18"/>
<text text-anchor="middle" x="4647.54" y="-281.297" font-family="Times,serif" font-size="14.00">continuously_zero_phase_two_error_phase_two: 1</text>
</a>
</g>
</g>
<!-- _phase_two_continuously&#45;&gt;_continuously_zero_phase_two_error_phase_two -->
<g id="edge15" class="edge"><title>_phase_two_continuously&#45;&gt;_continuously_zero_phase_two_error_phase_two</title>
<path fill="none" stroke="black" d="M3897.17,-895.253C4003.91,-808.582 4493.56,-411.022 4618.47,-309.601"/>
<polygon fill="black" stroke="black" points="4620.94,-312.107 4626.5,-303.086 4616.53,-306.672 4620.94,-312.107"/>
</g>
<!-- _phase_two_nonzero_error_continuous_drop -->
<g id="node22" class="node"><title>_phase_two_nonzero_error_continuous_drop</title>
<g id="a_node22"><a xlink:href=".html#phase_two_nonzero_error_continuous_drop" xlink:title="phase_two_nonzero_error_continuous_drop: 30">
<ellipse fill="#7fffd4" stroke="black" cx="3876.54" cy="-284.997" rx="179.268" ry="18"/>
<text text-anchor="middle" x="3876.54" y="-281.297" font-family="Times,serif" font-size="14.00">phase_two_nonzero_error_continuous_drop: 30</text>
</a>
</g>
</g>
<!-- _phase_two_continuously&#45;&gt;_phase_two_nonzero_error_continuous_drop -->
<g id="edge16" class="edge"><title>_phase_two_continuously&#45;&gt;_phase_two_nonzero_error_continuous_drop</title>
<path fill="none" stroke="black" d="M3876.54,-894.929C3876.54,-808.627 3876.54,-420.238 3876.54,-313.319"/>
<polygon fill="black" stroke="black" points="3880.04,-313.051 3876.54,-303.051 3873.04,-313.051 3880.04,-313.051"/>
</g>
<!-- _phases_locally_sufficient -->
<g id="node24" class="node"><title>_phases_locally_sufficient</title>
<g id="a_node24"><a xlink:href=".html#phases_locally_sufficient" xlink:title="phases_locally_sufficient: 0">
<ellipse fill="#7fffd4" stroke="black" cx="5305.54" cy="-1516" rx="109.381" ry="18"/>
<text text-anchor="middle" x="5305.54" y="-1512.3" font-family="Times,serif" font-size="14.00">phases_locally_sufficient: 0</text>
</a>
</g>
</g>
<!-- _phases_sufficient&#45;&gt;_phases_locally_sufficient -->
<g id="edge36" class="edge"><title>_phases_sufficient&#45;&gt;_phases_locally_sufficient</title>
<path fill="none" stroke="black" d="M5305.54,-2100.98C5305.54,-2017.21 5305.54,-1648.54 5305.54,-1544.45"/>
<polygon fill="black" stroke="black" points="5309.04,-1544.15 5305.54,-1534.15 5302.04,-1544.15 5309.04,-1544.15"/>
</g>
<!-- _occ_gst -->
<g id="node34" class="node"><title>_occ_gst</title>
<g id="a_node34"><a xlink:href=".html#occ_gst" xlink:title="occ_gst: 0">
<ellipse fill="#f070d1" stroke="black" cx="5661.54" cy="-1516" rx="46.5926" ry="18"/>
<text text-anchor="middle" x="5661.54" y="-1512.3" font-family="Times,serif" font-size="14.00">occ_gst: 0</text>
</a>
</g>
</g>
<!-- _phases_sufficient&#45;&gt;_occ_gst -->
<g id="edge37" class="edge"><title>_phases_sufficient&#45;&gt;_occ_gst</title>
<path fill="none" stroke="black" d="M5315.62,-2100.98C5365.55,-2016.69 5586.32,-1643.99 5646.4,-1542.56"/>
<polygon fill="black" stroke="black" points="5649.47,-1544.26 5651.55,-1533.87 5643.44,-1540.69 5649.47,-1544.26"/>
</g>
<!-- _all_succs_correct -->
<g id="node25" class="node"><title>_all_succs_correct</title>
<g id="a_node25"><a xlink:href=".html#all_succs_correct" xlink:title="all_succs_correct: 0">
<ellipse fill="#f070d1" stroke="black" cx="5305.54" cy="-912.997" rx="81.4863" ry="18"/>
<text text-anchor="middle" x="5305.54" y="-909.297" font-family="Times,serif" font-size="14.00">all_succs_correct: 0</text>
</a>
</g>
</g>
<!-- _phases_locally_sufficient&#45;&gt;_all_succs_correct -->
<g id="edge30" class="edge"><title>_phases_locally_sufficient&#45;&gt;_all_succs_correct</title>
<path fill="none" stroke="black" d="M5305.54,-1497.98C5305.54,-1414.21 5305.54,-1045.54 5305.54,-941.452"/>
<polygon fill="black" stroke="black" points="5309.04,-941.154 5305.54,-931.154 5302.04,-941.154 5309.04,-941.154"/>
</g>
<!-- _preds_and_first_succs_correct -->
<g id="node28" class="node"><title>_preds_and_first_succs_correct</title>
<g id="a_node28"><a xlink:href=".html#preds_and_first_succs_correct" xlink:title="preds_and_first_succs_correct: 0">
<ellipse fill="#f070d1" stroke="black" cx="5531.54" cy="-912.997" rx="126.978" ry="18"/>
<text text-anchor="middle" x="5531.54" y="-909.297" font-family="Times,serif" font-size="14.00">preds_and_first_succs_correct: 0</text>
</a>
</g>
</g>
<!-- _phases_locally_sufficient&#45;&gt;_preds_and_first_succs_correct -->
<g id="edge31" class="edge"><title>_phases_locally_sufficient&#45;&gt;_preds_and_first_succs_correct</title>
<path fill="none" stroke="black" d="M5311.94,-1497.98C5343.51,-1414.04 5482.64,-1044.05 5521.46,-940.823"/>
<polygon fill="black" stroke="black" points="5524.85,-941.746 5525.09,-931.154 5518.3,-939.282 5524.85,-941.746"/>
</g>
<!-- _ideal -->
<g id="node31" class="node"><title>_ideal</title>
<g id="a_node31"><a xlink:href=".html#ideal" xlink:title="ideal: 0">
<ellipse fill="#f070d1" stroke="black" cx="5169.54" cy="-912.997" rx="37.0935" ry="18"/>
<text text-anchor="middle" x="5169.54" y="-909.297" font-family="Times,serif" font-size="14.00">ideal: 0</text>
</a>
</g>
</g>
<!-- _phases_locally_sufficient&#45;&gt;_ideal -->
<g id="edge32" class="edge"><title>_phases_locally_sufficient&#45;&gt;_ideal</title>
<path fill="none" stroke="black" d="M5301.69,-1497.98C5282.72,-1414.13 5199.14,-1044.8 5175.69,-941.137"/>
<polygon fill="black" stroke="black" points="5179.05,-940.135 5173.43,-931.154 5172.22,-941.68 5179.05,-940.135"/>
</g>
<!-- _SUCC_LIST_LEN -->
<g id="node26" class="node"><title>_SUCC_LIST_LEN</title>
<g id="a_node26"><a xlink:href=".html#SUCC_LIST_LEN" xlink:title="SUCC_LIST_LEN: 0">
<ellipse fill="#facdef" stroke="black" cx="5178.54" cy="-284.997" rx="87.1846" ry="18"/>
<text text-anchor="middle" x="5178.54" y="-281.297" font-family="Times,serif" font-size="14.00">SUCC_LIST_LEN: 0</text>
</a>
</g>
</g>
<!-- _all_succs_correct&#45;&gt;_SUCC_LIST_LEN -->
<g id="edge22" class="edge"><title>_all_succs_correct&#45;&gt;_SUCC_LIST_LEN</title>
<path fill="none" stroke="black" d="M5302.08,-894.929C5284.55,-808.539 5205.62,-419.452 5184.02,-312.995"/>
<polygon fill="black" stroke="black" points="5187.42,-312.155 5182,-303.051 5180.56,-313.547 5187.42,-312.155"/>
</g>
<!-- _correct_succs -->
<g id="node27" class="node"><title>_correct_succs</title>
<g id="a_node27"><a xlink:href=".html#correct_succs" xlink:title="correct_succs: 0">
<ellipse fill="#f070d1" stroke="black" cx="5351.54" cy="-284.997" rx="67.6881" ry="18"/>
<text text-anchor="middle" x="5351.54" y="-281.297" font-family="Times,serif" font-size="14.00">correct_succs: 0</text>
</a>
</g>
</g>
<!-- _all_succs_correct&#45;&gt;_correct_succs -->
<g id="edge23" class="edge"><title>_all_succs_correct&#45;&gt;_correct_succs</title>
<path fill="none" stroke="black" d="M5306.8,-894.929C5313.14,-808.627 5341.68,-420.238 5349.54,-313.319"/>
<polygon fill="black" stroke="black" points="5353.05,-313.28 5350.29,-303.051 5346.07,-312.767 5353.05,-313.28"/>
</g>
<!-- _preds_correct -->
<g id="node29" class="node"><title>_preds_correct</title>
<g id="a_node29"><a xlink:href=".html#preds_correct" xlink:title="preds_correct: 0">
<ellipse fill="#f070d1" stroke="black" cx="5695.54" cy="-284.997" rx="67.6881" ry="18"/>
<text text-anchor="middle" x="5695.54" y="-281.297" font-family="Times,serif" font-size="14.00">preds_correct: 0</text>
</a>
</g>
</g>
<!-- _preds_and_first_succs_correct&#45;&gt;_preds_correct -->
<g id="edge24" class="edge"><title>_preds_and_first_succs_correct&#45;&gt;_preds_correct</title>
<path fill="none" stroke="black" d="M5536.02,-894.929C5558.65,-808.539 5660.58,-419.452 5688.47,-312.995"/>
<polygon fill="black" stroke="black" points="5691.93,-313.611 5691.08,-303.051 5685.16,-311.837 5691.93,-313.611"/>
</g>
<!-- _first_succs_correct -->
<g id="node30" class="node"><title>_first_succs_correct</title>
<g id="a_node30"><a xlink:href=".html#first_succs_correct" xlink:title="first_succs_correct: 0">
<ellipse fill="#f070d1" stroke="black" cx="5523.54" cy="-284.997" rx="86.3847" ry="18"/>
<text text-anchor="middle" x="5523.54" y="-281.297" font-family="Times,serif" font-size="14.00">first_succs_correct: 0</text>
</a>
</g>
</g>
<!-- _preds_and_first_succs_correct&#45;&gt;_first_succs_correct -->
<g id="edge25" class="edge"><title>_preds_and_first_succs_correct&#45;&gt;_first_succs_correct</title>
<path fill="none" stroke="black" d="M5531.33,-894.929C5530.22,-808.627 5525.26,-420.238 5523.89,-313.319"/>
<polygon fill="black" stroke="black" points="5527.39,-313.005 5523.76,-303.051 5520.39,-313.095 5527.39,-313.005"/>
</g>
<!-- _ideal&#45;&gt;_SUCC_LIST_LEN -->
<g id="edge26" class="edge"><title>_ideal&#45;&gt;_SUCC_LIST_LEN</title>
<path fill="none" stroke="black" d="M5169.79,-894.929C5171.03,-808.627 5176.61,-420.238 5178.15,-313.319"/>
<polygon fill="black" stroke="black" points="5181.65,-313.1 5178.3,-303.051 5174.66,-312.999 5181.65,-313.1"/>
</g>
<!-- _ideal&#45;&gt;_correct_succs -->
<g id="edge27" class="edge"><title>_ideal&#45;&gt;_correct_succs</title>
<path fill="none" stroke="black" d="M5174.51,-894.929C5199.65,-808.452 5312.97,-418.666 5343.79,-312.673"/>
<polygon fill="black" stroke="black" points="5347.15,-313.63 5346.59,-303.051 5340.43,-311.676 5347.15,-313.63"/>
</g>
<!-- _pred_correct -->
<g id="node32" class="node"><title>_pred_correct</title>
<g id="a_node32"><a xlink:href=".html#pred_correct" xlink:title="pred_correct: 0">
<ellipse fill="#f070d1" stroke="black" cx="5009.54" cy="-284.997" rx="64.189" ry="18"/>
<text text-anchor="middle" x="5009.54" y="-281.297" font-family="Times,serif" font-size="14.00">pred_correct: 0</text>
</a>
</g>
</g>
<!-- _ideal&#45;&gt;_pred_correct -->
<g id="edge28" class="edge"><title>_ideal&#45;&gt;_pred_correct</title>
<path fill="none" stroke="black" d="M5165.18,-894.929C5143.1,-808.539 5043.65,-419.452 5016.44,-312.995"/>
<polygon fill="black" stroke="black" points="5019.77,-311.872 5013.9,-303.051 5012.99,-313.606 5019.77,-311.872"/>
</g>
<!-- _pred -->
<g id="node33" class="node"><title>_pred</title>
<g id="a_node33"><a xlink:href=".html#pred" xlink:title="pred: 0">
<ellipse fill="#f070d1" stroke="black" cx="4891.54" cy="-284.997" rx="35.9954" ry="18"/>
<text text-anchor="middle" x="4891.54" y="-281.297" font-family="Times,serif" font-size="14.00">pred: 0</text>
</a>
</g>
</g>
<!-- _ideal&#45;&gt;_pred -->
<g id="edge29" class="edge"><title>_ideal&#45;&gt;_pred</title>
<path fill="none" stroke="black" d="M5162.11,-895.253C5123.92,-809.267 4949.85,-417.288 4903.12,-312.061"/>
<polygon fill="black" stroke="black" points="4906.26,-310.512 4899,-302.793 4899.86,-313.353 4906.26,-310.512"/>
</g>
<!-- _occurrence -->
<g id="node35" class="node"><title>_occurrence</title>
<g id="a_node35"><a xlink:href=".html#occurrence" xlink:title="occurrence: 0">
<ellipse fill="#e2cdfa" stroke="black" cx="5843.54" cy="-912.997" rx="58.4896" ry="18"/>
<text text-anchor="middle" x="5843.54" y="-909.297" font-family="Times,serif" font-size="14.00">occurrence: 0</text>
</a>
</g>
</g>
<!-- _occ_gst&#45;&gt;_occurrence -->
<g id="edge35" class="edge"><title>_occ_gst&#45;&gt;_occurrence</title>
<path fill="none" stroke="black" d="M5666.7,-1497.98C5692.12,-1414.04 5804.16,-1044.05 5835.42,-940.823"/>
<polygon fill="black" stroke="black" points="5838.8,-941.739 5838.35,-931.154 5832.1,-939.71 5838.8,-941.739"/>
</g>
<!-- ChordSemantics_label -->
<g id="node36" class="node"><title>ChordSemantics_label</title>
<g id="a_node36"><a xlink:href="ChordSemantics.html#label" xlink:title="label: 0">
<ellipse fill="#f070d1" stroke="black" cx="5960.54" cy="-284.997" rx="37.0935" ry="18"/>
<text text-anchor="middle" x="5960.54" y="-281.297" font-family="Times,serif" font-size="14.00">label: 0</text>
</a>
</g>
</g>
<!-- _occurrence&#45;&gt;ChordSemantics_label -->
<g id="edge33" class="edge"><title>_occurrence&#45;&gt;ChordSemantics_label</title>
<path fill="none" stroke="black" d="M5846.73,-894.929C5862.88,-808.539 5935.6,-419.452 5955.5,-312.995"/>
<polygon fill="black" stroke="black" points="5958.96,-313.523 5957.36,-303.051 5952.08,-312.237 5958.96,-313.523"/>
</g>
<!-- ChordSemantics_global_state -->
<g id="node37" class="node"><title>ChordSemantics_global_state</title>
<g id="a_node37"><a xlink:href="ChordSemantics.html#global_state" xlink:title="global_state: 0">
<ellipse fill="#e2cdfa" stroke="black" cx="5843.54" cy="-284.997" rx="62.2891" ry="18"/>
<text text-anchor="middle" x="5843.54" y="-281.297" font-family="Times,serif" font-size="14.00">global_state: 0</text>
</a>
</g>
</g>
<!-- _occurrence&#45;&gt;ChordSemantics_global_state -->
<g id="edge34" class="edge"><title>_occurrence&#45;&gt;ChordSemantics_global_state</title>
<path fill="none" stroke="black" d="M5843.54,-894.929C5843.54,-808.627 5843.54,-420.238 5843.54,-313.319"/>
<polygon fill="black" stroke="black" points="5847.04,-313.051 5843.54,-303.051 5840.04,-313.051 5847.04,-313.051"/>
</g>
</g>
</svg>
