<?xml version="1.0" encoding="UTF-8" standalone="no"?>
<!DOCTYPE svg PUBLIC "-//W3C//DTD SVG 1.1//EN"
 "http://www.w3.org/Graphics/SVG/1.1/DTD/svg11.dtd">
<!-- Generated by graphviz version 2.38.0 (20140413.2041)
 -->
<!-- Title: chord_all Pages: 1 -->
<svg width="1780pt" height="893pt"
 viewBox="0.00 0.00 1779.58 893.50" xmlns="http://www.w3.org/2000/svg" xmlns:xlink="http://www.w3.org/1999/xlink">
<g id="graph0" class="graph" transform="scale(1 1) rotate(0) translate(4 889.5)">
<title>chord_all</title>
<polygon fill="white" stroke="none" points="-4,4 -4,-889.5 1775.58,-889.5 1775.58,4 -4,4"/>
<!-- _chord_stabilization -->
<g id="node1" class="node"><title>_chord_stabilization</title>
<g id="a_node1"><a xlink:href=".html#chord_stabilization" xlink:title="chord_stabilization: 41">
<ellipse fill="#7fffd4" stroke="black" cx="1095.08" cy="-800" rx="91.7725" ry="18"/>
<ellipse fill="none" stroke="black" cx="1095.08" cy="-800" rx="95.7782" ry="22"/>
<ellipse fill="none" stroke="black" cx="1095.08" cy="-800" rx="99.7839" ry="26"/>
<text text-anchor="middle" x="1095.08" y="-796.3" font-family="Times,serif" font-size="14.00">chord_stabilization: 41</text>
</a>
</g>
</g>
<!-- _phase_three -->
<g id="node2" class="node"><title>_phase_three</title>
<g id="a_node2"><a xlink:href=".html#phase_three" xlink:title="phase_three: 41">
<ellipse fill="#7fffd4" stroke="black" cx="877.084" cy="-535" rx="66.0889" ry="18"/>
<text text-anchor="middle" x="877.084" y="-531.3" font-family="Times,serif" font-size="14.00">phase_three: 41</text>
</a>
</g>
</g>
<!-- _chord_stabilization&#45;&gt;_phase_three -->
<g id="edge13" class="edge"><title>_chord_stabilization&#45;&gt;_phase_three</title>
<path fill="none" stroke="black" d="M1074.58,-774.258C1032.91,-723.989 938.8,-610.455 897.343,-560.441"/>
<polygon fill="black" stroke="black" points="900.004,-558.166 890.927,-552.701 894.614,-562.633 900.004,-558.166"/>
</g>
<!-- _phases_sufficient -->
<g id="node9" class="node"><title>_phases_sufficient</title>
<g id="a_node9"><a xlink:href=".html#phases_sufficient" xlink:title="phases_sufficient: 0">
<ellipse fill="#7fffd4" stroke="black" cx="1417.08" cy="-535" rx="81.4863" ry="18"/>
<text text-anchor="middle" x="1417.08" y="-531.3" font-family="Times,serif" font-size="14.00">phases_sufficient: 0</text>
</a>
</g>
</g>
<!-- _chord_stabilization&#45;&gt;_phases_sufficient -->
<g id="edge14" class="edge"><title>_chord_stabilization&#45;&gt;_phases_sufficient</title>
<path fill="none" stroke="black" d="M1124.51,-774.963C1186.2,-724.582 1328.33,-608.494 1388.91,-559.015"/>
<polygon fill="black" stroke="black" points="1391.37,-561.526 1396.9,-552.489 1386.94,-556.104 1391.37,-561.526"/>
</g>
<!-- _phase_three_with_extra_hyps -->
<g id="node3" class="node"><title>_phase_three_with_extra_hyps</title>
<g id="a_node3"><a xlink:href=".html#phase_three_with_extra_hyps" xlink:title="phase_three_with_extra_hyps: 14">
<ellipse fill="#7fffd4" stroke="black" cx="492.084" cy="-297" rx="129.177" ry="18"/>
<text text-anchor="middle" x="492.084" y="-293.3" font-family="Times,serif" font-size="14.00">phase_three_with_extra_hyps: 14</text>
</a>
</g>
</g>
<!-- _phase_three&#45;&gt;_phase_three_with_extra_hyps -->
<g id="edge5" class="edge"><title>_phase_three&#45;&gt;_phase_three_with_extra_hyps</title>
<path fill="none" stroke="black" d="M851.525,-518.333C784.873,-477.476 605.587,-367.576 528.325,-320.215"/>
<polygon fill="black" stroke="black" points="529.778,-317.001 519.424,-314.759 526.12,-322.969 529.778,-317.001"/>
</g>
<!-- _phase_two_without_phase_one -->
<g id="node6" class="node"><title>_phase_two_without_phase_one</title>
<g id="a_node6"><a xlink:href=".html#phase_two_without_phase_one" xlink:title="phase_two_without_phase_one: 36">
<ellipse fill="#7fffd4" stroke="black" cx="877.084" cy="-297" rx="134.576" ry="18"/>
<text text-anchor="middle" x="877.084" y="-293.3" font-family="Times,serif" font-size="14.00">phase_two_without_phase_one: 36</text>
</a>
</g>
</g>
<!-- _phase_three&#45;&gt;_phase_two_without_phase_one -->
<g id="edge6" class="edge"><title>_phase_three&#45;&gt;_phase_two_without_phase_one</title>
<path fill="none" stroke="black" d="M877.084,-516.646C877.084,-475.972 877.084,-374.232 877.084,-325.226"/>
<polygon fill="black" stroke="black" points="880.584,-325.061 877.084,-315.061 873.584,-325.061 880.584,-325.061"/>
</g>
<!-- _phase_three_error_continuously_zero_sound -->
<g id="node4" class="node"><title>_phase_three_error_continuously_zero_sound</title>
<g id="a_node4"><a xlink:href=".html#phase_three_error_continuously_zero_sound" xlink:title="phase_three_error_continuously_zero_sound: 2">
<ellipse fill="#7fffd4" stroke="black" cx="178.084" cy="-59" rx="178.168" ry="18"/>
<text text-anchor="middle" x="178.084" y="-55.3" font-family="Times,serif" font-size="14.00">phase_three_error_continuously_zero_sound: 2</text>
</a>
</g>
</g>
<!-- _phase_three_with_extra_hyps&#45;&gt;_phase_three_error_continuously_zero_sound -->
<g id="edge1" class="edge"><title>_phase_three_with_extra_hyps&#45;&gt;_phase_three_error_continuously_zero_sound</title>
<path fill="none" stroke="black" d="M469.502,-279.027C414.304,-237.541 272.451,-130.926 209.261,-83.4321"/>
<polygon fill="black" stroke="black" points="210.98,-80.3462 200.884,-77.1359 206.775,-85.9419 210.98,-80.3462"/>
</g>
<!-- _phase_three_error_to_zero -->
<g id="node5" class="node"><title>_phase_three_error_to_zero</title>
<g id="a_node5"><a xlink:href=".html#phase_three_error_to_zero" xlink:title="phase_three_error_to_zero: 14">
<ellipse fill="#7fffd4" stroke="black" cx="492.084" cy="-59" rx="118.079" ry="18"/>
<text text-anchor="middle" x="492.084" y="-55.3" font-family="Times,serif" font-size="14.00">phase_three_error_to_zero: 14</text>
</a>
</g>
</g>
<!-- _phase_three_with_extra_hyps&#45;&gt;_phase_three_error_to_zero -->
<g id="edge2" class="edge"><title>_phase_three_with_extra_hyps&#45;&gt;_phase_three_error_to_zero</title>
<path fill="none" stroke="black" d="M492.084,-278.646C492.084,-237.972 492.084,-136.232 492.084,-87.2258"/>
<polygon fill="black" stroke="black" points="495.584,-87.0608 492.084,-77.0608 488.584,-87.0608 495.584,-87.0608"/>
</g>
<!-- _phase_one_continuously -->
<g id="node7" class="node"><title>_phase_one_continuously</title>
<g id="a_node7"><a xlink:href=".html#phase_one_continuously" xlink:title="phase_one_continuously: 19">
<ellipse fill="#7fffd4" stroke="black" cx="739.084" cy="-59" rx="111.28" ry="18"/>
<text text-anchor="middle" x="739.084" y="-55.3" font-family="Times,serif" font-size="14.00">phase_one_continuously: 19</text>
</a>
</g>
</g>
<!-- _phase_two_without_phase_one&#45;&gt;_phase_one_continuously -->
<g id="edge3" class="edge"><title>_phase_two_without_phase_one&#45;&gt;_phase_one_continuously</title>
<path fill="none" stroke="black" d="M867.16,-279.027C843.297,-238.219 782.587,-134.397 754.176,-85.81"/>
<polygon fill="black" stroke="black" points="757.174,-84.0016 749.104,-77.1359 751.131,-87.5351 757.174,-84.0016"/>
</g>
<!-- _phase_two_continuously -->
<g id="node8" class="node"><title>_phase_two_continuously</title>
<g id="a_node8"><a xlink:href=".html#phase_two_continuously" xlink:title="phase_two_continuously: 31">
<ellipse fill="#7fffd4" stroke="black" cx="980.084" cy="-59" rx="111.581" ry="18"/>
<text text-anchor="middle" x="980.084" y="-55.3" font-family="Times,serif" font-size="14.00">phase_two_continuously: 31</text>
</a>
</g>
</g>
<!-- _phase_two_without_phase_one&#45;&gt;_phase_two_continuously -->
<g id="edge4" class="edge"><title>_phase_two_without_phase_one&#45;&gt;_phase_two_continuously</title>
<path fill="none" stroke="black" d="M884.658,-278.646C902.522,-237.716 947.374,-134.947 968.603,-86.3055"/>
<polygon fill="black" stroke="black" points="971.846,-87.626 972.638,-77.0608 965.43,-84.8259 971.846,-87.626"/>
</g>
<!-- _phases_locally_sufficient -->
<g id="node10" class="node"><title>_phases_locally_sufficient</title>
<g id="a_node10"><a xlink:href=".html#phases_locally_sufficient" xlink:title="phases_locally_sufficient: 0">
<ellipse fill="#7fffd4" stroke="black" cx="1417.08" cy="-297" rx="109.381" ry="18"/>
<text text-anchor="middle" x="1417.08" y="-293.3" font-family="Times,serif" font-size="14.00">phases_locally_sufficient: 0</text>
</a>
</g>
</g>
<!-- _phases_sufficient&#45;&gt;_phases_locally_sufficient -->
<g id="edge11" class="edge"><title>_phases_sufficient&#45;&gt;_phases_locally_sufficient</title>
<path fill="none" stroke="black" d="M1417.08,-516.646C1417.08,-475.972 1417.08,-374.232 1417.08,-325.226"/>
<polygon fill="black" stroke="black" points="1420.58,-325.061 1417.08,-315.061 1413.58,-325.061 1420.58,-325.061"/>
</g>
<!-- _occ_gst -->
<g id="node14" class="node"><title>_occ_gst</title>
<g id="a_node14"><a xlink:href=".html#occ_gst" xlink:title="occ_gst: 0">
<ellipse fill="#f070d1" stroke="black" cx="1652.08" cy="-297" rx="46.5926" ry="18"/>
<text text-anchor="middle" x="1652.08" y="-293.3" font-family="Times,serif" font-size="14.00">occ_gst: 0</text>
</a>
</g>
</g>
<!-- _phases_sufficient&#45;&gt;_occ_gst -->
<g id="edge12" class="edge"><title>_phases_sufficient&#45;&gt;_occ_gst</title>
<path fill="none" stroke="black" d="M1433.98,-517.027C1475.26,-475.58 1581.26,-369.126 1628.62,-321.566"/>
<polygon fill="black" stroke="black" points="1631.38,-323.748 1635.96,-314.192 1626.42,-318.809 1631.38,-323.748"/>
</g>
<!-- _all_succs_correct -->
<g id="node11" class="node"><title>_all_succs_correct</title>
<g id="a_node11"><a xlink:href=".html#all_succs_correct" xlink:title="all_succs_correct: 0">
<ellipse fill="#f070d1" stroke="black" cx="1191.08" cy="-59" rx="81.4863" ry="18"/>
<text text-anchor="middle" x="1191.08" y="-55.3" font-family="Times,serif" font-size="14.00">all_succs_correct: 0</text>
</a>
</g>
</g>
<!-- _phases_locally_sufficient&#45;&gt;_all_succs_correct -->
<g id="edge7" class="edge"><title>_phases_locally_sufficient&#45;&gt;_all_succs_correct</title>
<path fill="none" stroke="black" d="M1400.83,-279.027C1361.33,-237.78 1260.18,-132.153 1214.32,-84.2596"/>
<polygon fill="black" stroke="black" points="1216.63,-81.6205 1207.19,-76.8187 1211.58,-86.462 1216.63,-81.6205"/>
</g>
<!-- _preds_and_first_succs_correct -->
<g id="node12" class="node"><title>_preds_and_first_succs_correct</title>
<g id="a_node12"><a xlink:href=".html#preds_and_first_succs_correct" xlink:title="preds_and_first_succs_correct: 0">
<ellipse fill="#f070d1" stroke="black" cx="1417.08" cy="-59" rx="126.978" ry="18"/>
<text text-anchor="middle" x="1417.08" y="-55.3" font-family="Times,serif" font-size="14.00">preds_and_first_succs_correct: 0</text>
</a>
</g>
</g>
<!-- _phases_locally_sufficient&#45;&gt;_preds_and_first_succs_correct -->
<g id="edge8" class="edge"><title>_phases_locally_sufficient&#45;&gt;_preds_and_first_succs_correct</title>
<path fill="none" stroke="black" d="M1417.08,-278.646C1417.08,-237.972 1417.08,-136.232 1417.08,-87.2258"/>
<polygon fill="black" stroke="black" points="1420.58,-87.0608 1417.08,-77.0608 1413.58,-87.0608 1420.58,-87.0608"/>
</g>
<!-- _ideal -->
<g id="node13" class="node"><title>_ideal</title>
<g id="a_node13"><a xlink:href=".html#ideal" xlink:title="ideal: 0">
<ellipse fill="#f070d1" stroke="black" cx="1599.08" cy="-59" rx="37.0935" ry="18"/>
<text text-anchor="middle" x="1599.08" y="-55.3" font-family="Times,serif" font-size="14.00">ideal: 0</text>
</a>
</g>
</g>
<!-- _phases_locally_sufficient&#45;&gt;_ideal -->
<g id="edge9" class="edge"><title>_phases_locally_sufficient&#45;&gt;_ideal</title>
<path fill="none" stroke="black" d="M1430.17,-279.027C1462.01,-237.751 1543.56,-132.003 1580.45,-84.1576"/>
<polygon fill="black" stroke="black" points="1583.26,-86.2484 1586.6,-76.1922 1577.72,-81.9736 1583.26,-86.2484"/>
</g>
<!-- _occurrence -->
<g id="node15" class="node"><title>_occurrence</title>
<g id="a_node15"><a xlink:href=".html#occurrence" xlink:title="occurrence: 0">
<ellipse fill="#e2cdfa" stroke="black" cx="1713.08" cy="-59" rx="58.4896" ry="18"/>
<text text-anchor="middle" x="1713.08" y="-55.3" font-family="Times,serif" font-size="14.00">occurrence: 0</text>
</a>
</g>
</g>
<!-- _occ_gst&#45;&gt;_occurrence -->
<g id="edge10" class="edge"><title>_occ_gst&#45;&gt;_occurrence</title>
<path fill="none" stroke="black" d="M1656.47,-279.027C1666.93,-238.559 1693.41,-136.119 1706.1,-87.0335"/>
<polygon fill="black" stroke="black" points="1709.54,-87.6936 1708.66,-77.1359 1702.76,-85.9418 1709.54,-87.6936"/>
</g>
</g>
</svg>
