<?xml version="1.0" encoding="UTF-8" standalone="no"?>
<!DOCTYPE svg PUBLIC "-//W3C//DTD SVG 1.1//EN"
 "http://www.w3.org/Graphics/SVG/1.1/DTD/svg11.dtd">
<!-- Generated by graphviz version 2.38.0 (20140413.2041)
 -->
<!-- Title: chord_all Pages: 1 -->
<svg width="902pt" height="455pt"
 viewBox="0.00 0.00 902.13 455.00" xmlns="http://www.w3.org/2000/svg" xmlns:xlink="http://www.w3.org/1999/xlink">
<g id="graph0" class="graph" transform="scale(1 1) rotate(0) translate(4 451)">
<title>chord_all</title>
<polygon fill="white" stroke="none" points="-4,4 -4,-451 898.134,-451 898.134,4 -4,4"/>
<!-- _chord_stabilization -->
<g id="node1" class="node"><title>_chord_stabilization</title>
<g id="a_node1"><a xlink:href=".html#chord_stabilization" xlink:title="chord_stabilization: 41">
<ellipse fill="#7fffd4" stroke="black" cx="542.339" cy="-388" rx="91.7725" ry="18"/>
<ellipse fill="none" stroke="black" cx="542.339" cy="-388" rx="95.7782" ry="22"/>
<ellipse fill="none" stroke="black" cx="542.339" cy="-388" rx="99.7839" ry="26"/>
<text text-anchor="middle" x="542.339" y="-384.3" font-family="Times,serif" font-size="14.00">chord_stabilization: 41</text>
</a>
</g>
</g>
<!-- _phase_three -->
<g id="node2" class="node"><title>_phase_three</title>
<g id="a_node2"><a xlink:href=".html#phase_three" xlink:title="phase_three: 41">
<ellipse fill="#7fffd4" stroke="black" cx="411.339" cy="-205" rx="66.0889" ry="18"/>
<text text-anchor="middle" x="411.339" y="-201.3" font-family="Times,serif" font-size="14.00">phase_three: 41</text>
</a>
</g>
</g>
<!-- _chord_stabilization&#45;&gt;_phase_three -->
<g id="edge5" class="edge"><title>_chord_stabilization&#45;&gt;_phase_three</title>
<path fill="none" stroke="black" d="M524.398,-362.212C499.463,-327.76 454.576,-265.741 429.516,-231.115"/>
<polygon fill="black" stroke="black" points="432.294,-228.984 423.596,-222.935 426.623,-233.088 432.294,-228.984"/>
</g>
<!-- _phases_sufficient -->
<g id="node5" class="node"><title>_phases_sufficient</title>
<g id="a_node5"><a xlink:href=".html#phases_sufficient" xlink:title="phases_sufficient: 0">
<ellipse fill="#7fffd4" stroke="black" cx="673.339" cy="-205" rx="81.4863" ry="18"/>
<text text-anchor="middle" x="673.339" y="-201.3" font-family="Times,serif" font-size="14.00">phases_sufficient: 0</text>
</a>
</g>
</g>
<!-- _chord_stabilization&#45;&gt;_phases_sufficient -->
<g id="edge6" class="edge"><title>_chord_stabilization&#45;&gt;_phases_sufficient</title>
<path fill="none" stroke="black" d="M560.279,-362.212C585.214,-327.76 630.101,-265.741 655.162,-231.115"/>
<polygon fill="black" stroke="black" points="658.054,-233.088 661.082,-222.935 652.383,-228.984 658.054,-233.088"/>
</g>
<!-- _phase_three_with_extra_hyps -->
<g id="node3" class="node"><title>_phase_three_with_extra_hyps</title>
<g id="a_node3"><a xlink:href=".html#phase_three_with_extra_hyps" xlink:title="phase_three_with_extra_hyps: 14">
<ellipse fill="#7fffd4" stroke="black" cx="129.339" cy="-41" rx="129.177" ry="18"/>
<text text-anchor="middle" x="129.339" y="-37.3" font-family="Times,serif" font-size="14.00">phase_three_with_extra_hyps: 14</text>
</a>
</g>
</g>
<!-- _phase_three&#45;&gt;_phase_three_with_extra_hyps -->
<g id="edge1" class="edge"><title>_phase_three&#45;&gt;_phase_three_with_extra_hyps</title>
<path fill="none" stroke="black" d="M384.299,-188.467C333.789,-159.45 225.002,-96.9556 167.214,-63.7581"/>
<polygon fill="black" stroke="black" points="168.808,-60.6376 158.394,-58.6912 165.321,-66.7074 168.808,-60.6376"/>
</g>
<!-- _phase_two_without_phase_one -->
<g id="node4" class="node"><title>_phase_two_without_phase_one</title>
<g id="a_node4"><a xlink:href=".html#phase_two_without_phase_one" xlink:title="phase_two_without_phase_one: 36">
<ellipse fill="#7fffd4" stroke="black" cx="411.339" cy="-41" rx="134.576" ry="18"/>
<text text-anchor="middle" x="411.339" y="-37.3" font-family="Times,serif" font-size="14.00">phase_two_without_phase_one: 36</text>
</a>
</g>
</g>
<!-- _phase_three&#45;&gt;_phase_two_without_phase_one -->
<g id="edge2" class="edge"><title>_phase_three&#45;&gt;_phase_two_without_phase_one</title>
<path fill="none" stroke="black" d="M411.339,-186.969C411.339,-158.968 411.339,-102.963 411.339,-69.352"/>
<polygon fill="black" stroke="black" points="414.839,-69.29 411.339,-59.29 407.839,-69.2901 414.839,-69.29"/>
</g>
<!-- _phases_locally_sufficient -->
<g id="node6" class="node"><title>_phases_locally_sufficient</title>
<g id="a_node6"><a xlink:href=".html#phases_locally_sufficient" xlink:title="phases_locally_sufficient: 0">
<ellipse fill="#7fffd4" stroke="black" cx="673.339" cy="-41" rx="109.381" ry="18"/>
<text text-anchor="middle" x="673.339" y="-37.3" font-family="Times,serif" font-size="14.00">phases_locally_sufficient: 0</text>
</a>
</g>
</g>
<!-- _phases_sufficient&#45;&gt;_phases_locally_sufficient -->
<g id="edge3" class="edge"><title>_phases_sufficient&#45;&gt;_phases_locally_sufficient</title>
<path fill="none" stroke="black" d="M673.339,-186.969C673.339,-158.968 673.339,-102.963 673.339,-69.352"/>
<polygon fill="black" stroke="black" points="676.839,-69.29 673.339,-59.29 669.839,-69.2901 676.839,-69.29"/>
</g>
<!-- _occ_gst -->
<g id="node7" class="node"><title>_occ_gst</title>
<g id="a_node7"><a xlink:href=".html#occ_gst" xlink:title="occ_gst: 0">
<ellipse fill="#f070d1" stroke="black" cx="847.339" cy="-41" rx="46.5926" ry="18"/>
<text text-anchor="middle" x="847.339" y="-37.3" font-family="Times,serif" font-size="14.00">occ_gst: 0</text>
</a>
</g>
</g>
<!-- _phases_sufficient&#45;&gt;_occ_gst -->
<g id="edge4" class="edge"><title>_phases_sufficient&#45;&gt;_occ_gst</title>
<path fill="none" stroke="black" d="M691.304,-187.273C722.625,-158.112 787.262,-97.9329 822.725,-64.9161"/>
<polygon fill="black" stroke="black" points="825.309,-67.2921 830.243,-57.9162 820.539,-62.1688 825.309,-67.2921"/>
</g>
</g>
</svg>
