<?xml version="1.0" encoding="UTF-8" standalone="no"?>
<!DOCTYPE svg PUBLIC "-//W3C//DTD SVG 1.1//EN"
 "http://www.w3.org/Graphics/SVG/1.1/DTD/svg11.dtd">
<!-- Generated by graphviz version 2.38.0 (20140413.2041)
 -->
<!-- Title: chord_all Pages: 1 -->
<svg width="322pt" height="165pt"
 viewBox="0.00 0.00 321.54 164.50" xmlns="http://www.w3.org/2000/svg" xmlns:xlink="http://www.w3.org/1999/xlink">
<g id="graph0" class="graph" transform="scale(1 1) rotate(0) translate(4 160.5)">
<title>chord_all</title>
<polygon fill="white" stroke="none" points="-4,4 -4,-160.5 317.537,-160.5 317.537,4 -4,4"/>
<!-- _chord_stabilization -->
<g id="node1" class="node"><title>_chord_stabilization</title>
<g id="a_node1"><a xlink:href=".html#chord_stabilization" xlink:title="chord_stabilization: 41">
<ellipse fill="#7fffd4" stroke="black" cx="149.294" cy="-124" rx="91.7725" ry="18"/>
<ellipse fill="none" stroke="black" cx="149.294" cy="-124" rx="95.7782" ry="22"/>
<ellipse fill="none" stroke="black" cx="149.294" cy="-124" rx="99.7839" ry="26"/>
<text text-anchor="middle" x="149.294" y="-120.3" font-family="Times,serif" font-size="14.00">chord_stabilization: 41</text>
</a>
</g>
</g>
<!-- _phase_three -->
<g id="node2" class="node"><title>_phase_three</title>
<g id="a_node2"><a xlink:href=".html#phase_three" xlink:title="phase_three: 41">
<ellipse fill="#7fffd4" stroke="black" cx="66.2941" cy="-23" rx="66.0889" ry="18"/>
<text text-anchor="middle" x="66.2941" y="-19.3" font-family="Times,serif" font-size="14.00">phase_three: 41</text>
</a>
</g>
</g>
<!-- _chord_stabilization&#45;&gt;_phase_three -->
<g id="edge1" class="edge"><title>_chord_stabilization&#45;&gt;_phase_three</title>
<path fill="none" stroke="black" d="M128.777,-98.5281C116.059,-83.358 99.7724,-63.9319 87.0159,-48.7164"/>
<polygon fill="black" stroke="black" points="89.444,-46.1648 80.3372,-40.7502 84.0798,-50.662 89.444,-46.1648"/>
</g>
<!-- _phases_sufficient -->
<g id="node3" class="node"><title>_phases_sufficient</title>
<g id="a_node3"><a xlink:href=".html#phases_sufficient" xlink:title="phases_sufficient: 0">
<ellipse fill="#7fffd4" stroke="black" cx="232.294" cy="-23" rx="81.4863" ry="18"/>
<text text-anchor="middle" x="232.294" y="-19.3" font-family="Times,serif" font-size="14.00">phases_sufficient: 0</text>
</a>
</g>
</g>
<!-- _chord_stabilization&#45;&gt;_phases_sufficient -->
<g id="edge2" class="edge"><title>_chord_stabilization&#45;&gt;_phases_sufficient</title>
<path fill="none" stroke="black" d="M169.811,-98.5281C182.529,-83.358 198.816,-63.9319 211.572,-48.7164"/>
<polygon fill="black" stroke="black" points="214.508,-50.662 218.251,-40.7502 209.144,-46.1648 214.508,-50.662"/>
</g>
</g>
</svg>
